<svg xmlns="http://www.w3.org/2000/svg" id="_126252" width="111" height="111" data-name="126252" viewBox="0 0 111 111">
    <defs>
        <style>
            .cls-1{fill:#fff}
        </style>
    </defs>
    <g id="Groupe_7" data-name="Groupe 7">
        <g id="Groupe_6" data-name="Groupe 6">
            <path id="Tracé_26" d="M55.5 0A55.5 55.5 0 1 0 111 55.5 55.5 55.5 0 0 0 55.5 0zm19.368 83.615a34.21 34.21 0 0 1-5.185 1.873 34.418 34.418 0 0 1-20.259-.251C41.294 82.61 35.9 77.061 32.683 69.3c-.617-1.507-1.028-3.083-1.507-4.659H24.8a1.915 1.915 0 0 1-1.919-1.919v-4.299A1.915 1.915 0 0 1 24.8 56.5h5.28v-3.489H24.8a1.915 1.915 0 0 1-1.919-1.919V46.8a1.915 1.915 0 0 1 1.919-1.92h6.715l.228-.662a28.42 28.42 0 0 1 9.684-14.343 27.705 27.705 0 0 1 12.881-5.322 36.582 36.582 0 0 1 19.459 2.307 8.093 8.093 0 0 1 1.188.571 2.571 2.571 0 0 1 1.233 3.631c-.708 1.69-1.416 3.4-2.193 5.07a2.416 2.416 0 0 1-3.129 1.553c-2.124-.48-4.2-1.142-6.327-1.576a22.97 22.97 0 0 0-13.293.754c-3.746 1.485-6.03 4.34-7.583 7.9a.29.29 0 0 0-.023.137h13.048a1.915 1.915 0 0 1 1.919 1.919v4.294a1.915 1.915 0 0 1-1.919 1.919H41.8c-.023 1.142 0 2.284 0 3.494h14.91a1.915 1.915 0 0 1 1.919 1.919v4.295a1.915 1.915 0 0 1-1.919 1.919H43.1c1.644 4.7 4.317 8.336 9.341 9.912a23.74 23.74 0 0 0 12.128.343c2.1-.434 4.157-1.073 6.258-1.553a2.431 2.431 0 0 1 3.22 1.576q1.165 2.535 2.193 5.139a2.462 2.462 0 0 1-1.372 3.539z" class="cls-1" data-name="Tracé 26"/>
        </g>
    </g>
</svg>
