<svg xmlns="http://www.w3.org/2000/svg" width="53.807" height="57.901" viewBox="0 0 53.807 57.901">
    <defs>
        <style>
            .cls-1{opacity:.745}.cls-2{fill:#fff}
        </style>
    </defs>
    <g id="_126510" class="cls-1" data-name="126510" transform="translate(-17.2)">
        <path id="Tracé_33" d="M32.535 38.124h31.9a6.582 6.582 0 0 0 6.569-6.569V17.989a.151.151 0 0 0-.004-.071c0-.024-.012-.059-.012-.083s-.012-.048-.012-.071a.758.758 0 0 1-.024-.083c-.012-.024-.012-.048-.024-.071s-.012-.048-.024-.071a.579.579 0 0 1-.036-.083.26.26 0 0 0-.036-.06l-.036-.071c-.012-.024-.024-.036-.036-.059s-.036-.048-.048-.071a.209.209 0 0 0-.048-.059c-.012-.024-.036-.036-.048-.059s-.036-.036-.048-.059-.036-.036-.048-.048l-.059-.059c-.024-.012-.036-.036-.06-.048s-.048-.036-.071-.048-.036-.024-.06-.036a.249.249 0 0 1-.071-.048l-.071-.036-.071-.036-.071-.036c-.024-.012-.048-.012-.071-.024a.221.221 0 0 0-.083-.024.515.515 0 0 1-.06-.012.262.262 0 0 0-.1-.012c-.012 0-.024-.012-.048-.012l-40.432-5.583v-5.64a.732.732 0 0 0-.012-.167.09.09 0 0 0-.012-.048c0-.036-.012-.071-.012-.107s-.012-.059-.024-.1-.012-.036-.012-.059l-.036-.107c0-.012-.012-.036-.012-.048a.356.356 0 0 0-.048-.1c-.012-.012-.012-.036-.024-.048a.249.249 0 0 0-.048-.071c-.012-.024-.024-.036-.036-.059s-.024-.036-.036-.059-.036-.048-.048-.071l-.032-.027-.071-.071-.036-.036a.518.518 0 0 0-.083-.071c-.012-.012-.036-.024-.048-.036s-.048-.036-.071-.059a1.1 1.1 0 0 0-.1-.059c-.012-.012-.024-.012-.036-.024-.048-.024-.107-.048-.155-.071L19.434.127a1.608 1.608 0 1 0-1.25 2.963l7.783 3.284v35.2a6.576 6.576 0 0 0 5.724 6.509 6.483 6.483 0 1 0 12.043 3.332 6.363 6.363 0 0 0-.892-3.272h14.445a6.4 6.4 0 0 0-.892 3.272 6.485 6.485 0 1 0 6.485-6.485H32.535a3.359 3.359 0 0 1-3.356-3.356v-4.355a6.644 6.644 0 0 0 3.356.905zm8 13.28a3.272 3.272 0 1 1-3.272-3.272 3.278 3.278 0 0 1 3.269 3.268zm25.632 0a3.272 3.272 0 1 1-3.272-3.272 3.278 3.278 0 0 1 3.27 3.268zm-1.728-16.493h-31.9a3.359 3.359 0 0 1-3.356-3.356V14.193l38.615 5.319v12.031a3.362 3.362 0 0 1-3.359 3.368z" class="cls-2" data-name="Tracé 33"/>
    </g>
</svg>
