<svg xmlns="http://www.w3.org/2000/svg" width="108.042" height="117.001" viewBox="0 0 108.042 117.001">
    <defs>
        <style>
            .cls-1{fill:#fff}
        </style>
    </defs>
    <g id="_23463" data-name="23463" transform="translate(1.888 -.563)">
        <path id="Tracé_24" d="M24.172 61.664c3.138 6.175 5.958 10.679 5.128 17.9-.8 6.99-.473 14.332-3.226 20.756-1.951 4.559 1.264 4.752 2.9 6.514 6.436 6.99 14.707 4.172 22.022 6.375 5.5 1.658 13.575 8.344 15.1-6.8.275-2.721 3.633-3.5 6.21-3.606a25.286 25.286 0 0 1 11.833 2.687c5.441 2.452 14.614-2.438 16.823-8.7.929-2.645-.066-3.039-1.775-4.117-4.551-2.839-4.276-7.356-3.16-13.124.956-5.022 1.715-12.343-3.281-14.65-4.584-2.121-1.671-4.179-.638-5.422 4.941-6.058 7.843-13.234 10.816-21.136 3.023-8.012-.06-8.164-3.809-9.539A112.472 112.472 0 0 1 60.907 5.018C56.488.88 52.691 2.2 52.366 9.072c-.324 6.707-2.429 9.035-7.3 9.083a4.634 4.634 0 0 0-4.7 3.253c-2.814 8.061-6.782 4.428-10.244 1.292-1.814-1.658-3.089-3.958-5.479-1.906-2.622 2.238-1.011 4.483-.005 6.907 2.918 7 1.572 8.178-4.776 7.729a6.859 6.859 0 0 1-3.4-1.423c-1.687-1.174-3.177-2.521-5.221-1.824a48.167 48.167 0 0 1-5.457 1.63c-2.491.45-5.855-1.09-5.784 4.422.06 4.725 1.143 8.144 5.49 9.5 7.19 2.256 13.703 4.121 18.682 13.929z" class="cls-1" data-name="Tracé 24" transform="rotate(2 61.236 60.785)"/>
    </g>
</svg>
