<svg xmlns="http://www.w3.org/2000/svg" width="110.735" height="110.752" viewBox="0 0 110.735 110.752">
    <defs>
        <style>
            .cls-1{fill:#fff}
        </style>
    </defs>
    <g id="_52349" data-name="52349" transform="translate(-.004)">
        <g id="Groupe_5" data-name="Groupe 5" transform="translate(.004)">
            <path id="Tracé_20" d="M65.7 16.564l-1.657.525-8.824.786-2.492 3.98-1.809-.575-7.026-6.33-1.019-3.293-1.365-3.511-4.413-3.959-5.207-1.019-.12 2.383 5.1 4.978 2.5 2.94-2.806 1.467-2.284-.673-3.423-1.428.116-2.76-4.495-1.848-1.491 6.49-4.527 1.026.448 3.621L26.8 20.5l1.019-5.785 4.869.719 2.263 1.326h3.631l2.485 4.978 6.593 6.682-.483 2.6-5.313-.677-9.18 4.636-6.61 7.929-.86 3.511h-2.372l-4.421-2.038-4.294 2.038 1.068 4.53 1.868-2.154 3.286-.1-.229 4.068 2.722.8 2.718 3.053L30 55.361l5.069.8 5.887 1.583 2.94.345 4.985 5.658 9.619 5.659-6.222 11.887-6.568 3.053-2.492 6.794-9.5 6.346-1.018 3.659a55.343 55.343 0 0 0 42.373-53.773A55.132 55.132 0 0 0 65.7 16.564z" class="cls-1" data-name="Tracé 20" transform="translate(35.662 8)"/>
            <path id="Tracé_21" d="M61.736 65.295L57.7 57.818l3.7-7.713L57.7 49l-4.156-4.174-9.208-2.066-3.056-6.395v3.8h-1.344L32 29.4v-8.838L26.183 11.1l-9.236 1.65h-6.222L7.594 10.7l3.994-3.166-3.988.918a55.3 55.3 0 0 0 47.77 83.279 57.975 57.975 0 0 0 6.948-.483l-.578-6.708s2.542-9.963 2.542-10.3-2.546-8.945-2.546-8.945z" class="cls-1" data-name="Tracé 21" transform="translate(-.004 19.021)"/>
            <path id="Tracé_22" d="M11.507 17.856l9.836-1.371L25.876 14l5.1 1.47 8.151-.451 2.792-4.389 4.072.67 9.889-.927 2.725-3L62.448 4.8l5.436.818 1.981-.3A55.194 55.194 0 0 0 3.6 20.133h.028zM48.636 5.507l5.655-3.113 3.631 2.1-5.256 4-5.02.5-2.26-1.464zm-16.749.455L34.383 7l3.268-1.04 1.78 3.085-7.544 1.981-3.628-2.121s3.547-2.284 3.628-2.944z" class="cls-1" data-name="Tracé 22" transform="translate(9.067)"/>
        </g>
    </g>
</svg>
